<mxfile host="app.diagrams.net" modified="2022-04-10T02:03:39.854Z" agent="5.0 (Windows NT 10.0; Win64; x64) AppleWebKit/537.36 (KHTML, like Gecko) Chrome/100.0.4896.75 Safari/537.36" etag="ZGxhBzs50euOCmPFe_M0" version="16.6.1" type="github">
  <diagram id="o8HeYgSF8knBu53HC-Uj" name="Page-1">
    <mxGraphModel dx="868" dy="508" grid="1" gridSize="10" guides="1" tooltips="1" connect="1" arrows="1" fold="1" page="1" pageScale="1" pageWidth="827" pageHeight="1169" math="0" shadow="0">
      <root>
        <mxCell id="0" />
        <mxCell id="1" parent="0" />
        <mxCell id="YlRuR4G6jY1_Ra1TPGeT-4" value="" style="edgeStyle=orthogonalEdgeStyle;rounded=0;orthogonalLoop=1;jettySize=auto;html=1;" edge="1" parent="1" source="YlRuR4G6jY1_Ra1TPGeT-1" target="YlRuR4G6jY1_Ra1TPGeT-3">
          <mxGeometry relative="1" as="geometry" />
        </mxCell>
        <mxCell id="YlRuR4G6jY1_Ra1TPGeT-1" value="Start" style="ellipse;whiteSpace=wrap;html=1;" vertex="1" parent="1">
          <mxGeometry x="340" y="20" width="120" height="80" as="geometry" />
        </mxCell>
        <mxCell id="YlRuR4G6jY1_Ra1TPGeT-2" value="End" style="ellipse;whiteSpace=wrap;html=1;" vertex="1" parent="1">
          <mxGeometry x="340" y="390" width="120" height="80" as="geometry" />
        </mxCell>
        <mxCell id="YlRuR4G6jY1_Ra1TPGeT-6" value="" style="edgeStyle=orthogonalEdgeStyle;rounded=0;orthogonalLoop=1;jettySize=auto;html=1;" edge="1" parent="1" source="YlRuR4G6jY1_Ra1TPGeT-3" target="YlRuR4G6jY1_Ra1TPGeT-5">
          <mxGeometry relative="1" as="geometry" />
        </mxCell>
        <mxCell id="YlRuR4G6jY1_Ra1TPGeT-3" value="Ask 1st number" style="whiteSpace=wrap;html=1;" vertex="1" parent="1">
          <mxGeometry x="340" y="120" width="120" height="30" as="geometry" />
        </mxCell>
        <mxCell id="YlRuR4G6jY1_Ra1TPGeT-8" value="" style="edgeStyle=orthogonalEdgeStyle;rounded=0;orthogonalLoop=1;jettySize=auto;html=1;" edge="1" parent="1" source="YlRuR4G6jY1_Ra1TPGeT-5" target="YlRuR4G6jY1_Ra1TPGeT-7">
          <mxGeometry relative="1" as="geometry" />
        </mxCell>
        <mxCell id="YlRuR4G6jY1_Ra1TPGeT-5" value="Print operations" style="whiteSpace=wrap;html=1;" vertex="1" parent="1">
          <mxGeometry x="340" y="170" width="120" height="30" as="geometry" />
        </mxCell>
        <mxCell id="YlRuR4G6jY1_Ra1TPGeT-7" value="Ask 2nd number" style="whiteSpace=wrap;html=1;" vertex="1" parent="1">
          <mxGeometry x="340" y="220" width="120" height="30" as="geometry" />
        </mxCell>
      </root>
    </mxGraphModel>
  </diagram>
</mxfile>
